REM DIRINDEX 1\2\6,1\2\7,1\2\8,1\3\9,1\3\10,1\3\11,1\4\12,1\4\13,1\4\14,1\5\15,1\5\16,1\5\17,1\5\18
REM DIRNAME folder01,folder02,folder03,folder04,folder05,folder06,folder07,folder08,folder09,folder10,folder11,folder12,folder13,folder14,folder15,folder16,folder17,folder18
TITLE ""
FILE "2Q_t_0018-0035.mp3" MP3
  TRACK 01 AUDIO
    TITLE "13:cjc019_2091"
    INDEX 01 00:00:00
  TRACK 02 AUDIO
    TITLE "0:"
    INDEX 01 00:01:03
  TRACK 03 AUDIO
    TITLE "14:cjc019_2092"
    INDEX 01 00:01:54
  TRACK 04 AUDIO
    TITLE "0:"
    INDEX 01 00:04:58
  TRACK 05 AUDIO
    TITLE "13:cjc019_2093"
    INDEX 01 00:05:34
  TRACK 06 AUDIO
    TITLE "0:"
    INDEX 01 00:06:14
  TRACK 07 AUDIO
    TITLE "14:cjc019_2094"
    INDEX 01 00:07:05
  TRACK 08 AUDIO
    TITLE "0:"
    INDEX 01 00:09:73
  TRACK 09 AUDIO
    TITLE "13:cjc019_2095"
    INDEX 01 00:10:51
  TRACK 10 AUDIO
    TITLE "0:"
    INDEX 01 00:11:72
  TRACK 11 AUDIO
    TITLE "14:cjc019_2096"
    INDEX 01 00:12:52
  TRACK 12 AUDIO
    TITLE "0:"
    INDEX 01 00:15:07
  TRACK 13 AUDIO
    TITLE "13:cjc019_2097"
    INDEX 01 00:15:56
  TRACK 14 AUDIO
    TITLE "0:"
    INDEX 01 00:16:61
  TRACK 15 AUDIO
    TITLE "14:cjc019_2098"
    INDEX 01 00:17:39
  TRACK 16 AUDIO
    TITLE "0:"
    INDEX 01 00:22:32
  TRACK 17 AUDIO
    TITLE "13:cjc019_2099"
    INDEX 01 00:23:12
  TRACK 18 AUDIO
    TITLE "0:"
    INDEX 01 00:24:10
  TRACK 19 AUDIO
    TITLE "14:cjc019_2100"
    INDEX 01 00:24:69
  TRACK 20 AUDIO
    TITLE "0:"
    INDEX 01 00:28:08
  TRACK 21 AUDIO
    TITLE "13:cjc019_2101"
    INDEX 01 00:28:59
  TRACK 22 AUDIO
    TITLE "0:"
    INDEX 01 00:29:56
  TRACK 23 AUDIO
    TITLE "14:cjc019_2102"
    INDEX 01 00:30:40
  TRACK 24 AUDIO
    TITLE "0:"
    INDEX 01 00:33:48
  TRACK 25 AUDIO
    TITLE "13:cjc019_2103"
    INDEX 01 00:34:24
  TRACK 26 AUDIO
    TITLE "0:"
    INDEX 01 00:35:43
  TRACK 27 AUDIO
    TITLE "14:cjc019_2104"
    INDEX 01 00:36:19
  TRACK 28 AUDIO
    TITLE "0:"
    INDEX 01 00:38:67
  TRACK 29 AUDIO
    TITLE "13:cjc019_2105"
    INDEX 01 00:39:45
  TRACK 30 AUDIO
    TITLE "0:"
    INDEX 01 00:40:64
  TRACK 31 AUDIO
    TITLE "14:cjc019_2106"
    INDEX 01 00:41:45
  TRACK 32 AUDIO
    TITLE "0:"
    INDEX 01 00:46:41
  TRACK 33 AUDIO
    TITLE "13:cjc019_2107"
    INDEX 01 00:47:19
  TRACK 34 AUDIO
    TITLE "0:"
    INDEX 01 00:48:36
  TRACK 35 AUDIO
    TITLE "14:cjc019_2108"
    INDEX 01 00:49:20
  TRACK 36 AUDIO
    TITLE "0:"
    INDEX 01 00:51:67
  TRACK 37 AUDIO
    TITLE "13:cjc019_2109"
    INDEX 01 00:52:41
  TRACK 38 AUDIO
    TITLE "0:"
    INDEX 01 00:53:37
  TRACK 39 AUDIO
    TITLE "14:cjc019_2110"
    INDEX 01 00:54:30
  TRACK 40 AUDIO
    TITLE "0:"
    INDEX 01 01:02:44
  TRACK 41 AUDIO
    TITLE "13:cjc019_2111"
    INDEX 01 01:03:35
  TRACK 42 AUDIO
    TITLE "0:"
    INDEX 01 01:04:54
  TRACK 43 AUDIO
    TITLE "14:cjc019_2112"
    INDEX 01 01:05:28
  TRACK 44 AUDIO
    TITLE "0:"
    INDEX 01 01:07:02
  TRACK 45 AUDIO
    TITLE "13:cjc019_2113"
    INDEX 01 01:07:53
  TRACK 46 AUDIO
    TITLE "0:"
    INDEX 01 01:08:54
  TRACK 47 AUDIO
    TITLE "14:cjc019_2114"
    INDEX 01 01:09:32
  TRACK 48 AUDIO
    TITLE "0:"
    INDEX 01 01:14:08
  TRACK 49 AUDIO
    TITLE "13:cjc019_2115"
    INDEX 01 01:14:55
  TRACK 50 AUDIO
    TITLE "0:"
    INDEX 01 01:15:72
  TRACK 51 AUDIO
    TITLE "14:cjc019_2116"
    INDEX 01 01:16:56
  TRACK 52 AUDIO
    TITLE "0:"
    INDEX 01 01:17:71
  TRACK 53 AUDIO
    TITLE "13:cjc019_2117"
    INDEX 01 01:18:47
  TRACK 54 AUDIO
    TITLE "0:"
    INDEX 01 01:19:60
  TRACK 55 AUDIO
    TITLE "14:cjc019_2118"
    INDEX 01 01:20:40
  TRACK 56 AUDIO
    TITLE "0:"
    INDEX 01 01:21:59
  TRACK 57 AUDIO
    TITLE "13:cjc019_2119"
    INDEX 01 01:22:33
  TRACK 58 AUDIO
    TITLE "0:"
    INDEX 01 01:23:44
  TRACK 59 AUDIO
    TITLE "14:cjc019_2120"
    INDEX 01 01:24:26
  TRACK 60 AUDIO
    TITLE "0:"
    INDEX 01 01:28:10
  TRACK 61 AUDIO
    TITLE "13:cjc019_2121"
    INDEX 01 01:28:63
  TRACK 62 AUDIO
    TITLE "0:"
    INDEX 01 01:30:11
  TRACK 63 AUDIO
    TITLE "14:cjc019_2122"
    INDEX 01 01:30:62
  TRACK 64 AUDIO
    TITLE "0:"
    INDEX 01 01:34:22
  TRACK 65 AUDIO
    TITLE "13:cjc019_2123"
    INDEX 01 01:35:00
  TRACK 66 AUDIO
    TITLE "0:"
    INDEX 01 01:36:07
  TRACK 67 AUDIO
    TITLE "14:cjc019_2124"
    INDEX 01 01:36:56
  TRACK 68 AUDIO
    TITLE "0:"
    INDEX 01 01:40:03
  TRACK 69 AUDIO
    TITLE "13:cjc019_2125"
    INDEX 01 01:40:54
  TRACK 70 AUDIO
    TITLE "0:"
    INDEX 01 01:41:59
  TRACK 71 AUDIO
    TITLE "14:cjc019_2126"
    INDEX 01 01:42:33
  TRACK 72 AUDIO
    TITLE "0:"
    INDEX 01 01:48:20
